<svg width="270" height="512" viewBox="0 0 270 512" fill="none" xmlns="http://www.w3.org/2000/svg">
<path d="M135 0C60.561 0 0 60.561 0 135V150H90V135C90 110.187 110.187 90 135 90C159.813 90 180 110.187 180 135C180 159.813 159.813 180 135 180H0V512H270V135C270 60.561 209.439 0 135 0ZM240 482H30V210H135C176.355 210 210 176.355 210 135C210 93.645 176.355 60 135 60C98.781 60 68.477 85.81 61.507 120H31.069C38.369 69.183 82.195 30 135 30C192.897 30 240 77.103 240 135V482Z" fill="url(#paint0_linear)"/>
<path d="M198.64 303.573L177.427 282.36L135 324.787L92.573 282.36L71.36 303.573L113.787 346L71.36 388.427L92.573 409.64L135 367.213L177.427 409.64L198.64 388.427L156.213 346L198.64 303.573Z" fill="#B41C8B"/>
<defs>
<linearGradient id="paint0_linear" x1="135" y1="0" x2="135" y2="512" gradientUnits="userSpaceOnUse">
<stop stop-color="#60DAA8"/>
<stop offset="0.0001" stop-color="#EF427C"/>
<stop offset="1" stop-color="#B41C8B"/>
</linearGradient>
</defs>
</svg>
