<svg xmlns="http://www.w3.org/2000/svg" xmlns:xlink="http://www.w3.org/1999/xlink" width="138.776" height="74.045" viewBox="0 0 138.776 74.045"><defs><linearGradient id="a" x1="0.5" x2="0.5" y2="1" gradientUnits="objectBoundingBox"><stop offset="0" stop-color="#187c9b"/><stop offset="1" stop-color="#18708d"/></linearGradient><clipPath id="c"><rect width="138.776" height="74.045"/></clipPath></defs><g id="b" clip-path="url(#c)"><rect width="138.776" height="74.045" fill="#fff"/><g transform="translate(8.253 13.296)"><path d="M74.673,37.589l18.182,38.5H84.34l-10.984-23.4-11.918,23.4H52.814l19.608-38.5Z" transform="translate(-23.648 -37.589)" fill="#2e2e2d"/><path d="M41.388,68.418H55.721v7.634H33.7V37.606h7.689Z" transform="translate(-33.699 -37.58)" fill="#2e2e2d"/><path d="M94.031,58.477,91.067,61.5V76.051H83.378V37.607h7.689V50.019l11.259-12.412h10.38L99.249,52.655l13.786,23.4h-9.172Z" transform="translate(-7.577 -37.58)" fill="#2e2e2d"/><path d="M108.218,76.052V37.606h7.689V76.052Z" transform="translate(5.484 -37.58)" fill="#2e2e2d"/><path d="M76.291,75.995,67.656,57.712l2.509-5,4.615-8.121-3.3-6.982h-2.25L58.881,57.9l4.4,8.538.027-.054,4.51,9.606Z" transform="translate(-20.458 -37.58)" fill="url(#a)"/><text transform="translate(0.747 41.704)" fill="#707070" font-size="10" font-family="SegoeUI-Semilight, Segoe UI" font-weight="300"><tspan x="14.312" y="11">We are here for you</tspan></text></g></g></svg>