<svg id="Capa_1" enable-background="new 0 0 512 512" height="512" viewBox="0 0 512 512" width="512" xmlns="http://www.w3.org/2000/svg"><g><g><path d="m304.315 141.459 101.847 101.838 34.555-34.555-101.838-101.838h-34.564z" fill="#c7c5cb"/><path d="m42.087 146.963c0 37.273 14.516 72.307 40.87 98.66l43.939 43.949 34.565-34.555-43.949-43.949c-17.126-17.126-26.549-39.892-26.549-64.105s9.423-46.979 26.549-64.105c35.347-35.337 92.854-35.347 128.201 0l58.602 58.602 34.565-34.555-58.602-58.602c-54.399-54.399-142.922-54.408-197.321 0-26.354 26.353-40.87 61.387-40.87 98.66z" fill="#6a647f"/><path d="m161.461 255.017-43.949-43.949c-.014-.013-.026-.028-.039-.041-16.271 5.304-31.336 13.094-44.811 23.105 3.201 3.985 6.629 7.825 10.295 11.491l43.939 43.949z" fill="#4f4c5f"/><path d="m379.612 352.544c19.648 29.863 34.144 66.745 39.198 112.228 2.141 19.316-12.903 36.246-32.346 36.246h-262.608l-84.633-140.693c0-56.735 37.605-106.598 92.16-122.189l6.442-1.838c14.145-4.047 28.827-5.582 43.372-4.614l92.983 64.92z" fill="#f9d888"/><path d="m102.041 413.161-32.818-55.645c0-57.867 37.605-108.725 92.16-124.628l4.428-1.289c-9.432.516-18.822 2.076-27.987 4.698l-6.442 1.838c-54.555 15.591-92.16 65.454-92.16 122.189l31.783 52.836h31.036z" fill="#ffbe73"/><circle cx="112.31" cy="413.161" fill="#6a647f" r="91.339"/><circle cx="112.31" cy="413.161" fill="#ececec" r="45.558"/><path d="m181.197 231.684v30.557c0 17.449 10.997 32.952 27.409 38.866 26.276 9.462 56.901 24.184 84.232 46.784 5.963 4.936 11.564 10.068 16.803 15.406 16.149 16.422 42.502 16.715 58.788.43l11.183-11.183c-48.103-73.118-127.047-104.222-173.909-116.793-8.055-2.161-16.256-3.52-24.506-4.067z" fill="#6a647f"/><path d="m368.554 228.644 57.506-57.506c16.945-16.945 44.418-16.945 61.363 0 4.809 4.809 4.809 12.605 0 17.414l-101.455 101.455c-4.809 4.809-12.605 4.809-17.414 0-16.945-16.945-16.945-44.418 0-61.363z" fill="#f9d888"/><path d="m405.968 270.007c-4.809 4.809-12.605 4.809-17.414 0-16.945-16.945-16.945-44.418 0-61.363l-20 20c-16.945 16.945-16.945 44.418 0 61.363 4.809 4.809 12.605 4.809 17.414 0z" fill="#ffbe73"/></g><g><path d="m112.314 360.103c-29.256 0-53.058 23.802-53.058 53.059 0 29.256 23.802 53.058 53.058 53.058 29.257 0 53.059-23.802 53.059-53.058 0-29.258-23.802-53.059-53.059-53.059zm0 91.116c-20.985 0-38.058-17.073-38.058-38.058s17.073-38.059 38.058-38.059c20.986 0 38.059 17.073 38.059 38.059s-17.073 38.058-38.059 38.058z"/><path d="m360.763 459.66c4.142 0 7.5-3.358 7.5-7.5v-11.73c0-4.142-3.358-7.5-7.5-7.5s-7.5 3.358-7.5 7.5v11.73c0 4.142 3.358 7.5 7.5 7.5z"/><path d="m238.675 459.66c4.142 0 7.5-3.358 7.5-7.5v-11.73c0-4.142-3.358-7.5-7.5-7.5s-7.5 3.358-7.5 7.5v11.73c0 4.142 3.358 7.5 7.5 7.5z"/><path d="m299.719 466.643c8.335 0 16.262-3.61 21.748-9.904 2.721-3.123 2.396-7.86-.726-10.582-3.123-2.72-7.86-2.396-10.582.727-2.636 3.025-6.441 4.76-10.44 4.76s-7.804-1.735-10.44-4.76c-2.721-3.123-7.459-3.448-10.582-.727-3.123 2.722-3.448 7.459-.726 10.582 5.485 6.294 13.412 9.904 21.748 9.904z"/><path d="m420.762 165.835-6.17 6.17-129.007-129.005c-27.727-27.728-64.648-42.999-103.963-43-.002 0-.002 0-.005 0-39.314 0-76.235 15.271-103.958 43-27.772 27.772-43.067 64.693-43.067 103.963s15.295 76.192 43.066 103.963l4.4 4.401c-8.344 6.712-15.915 14.461-22.571 23.155-17.192 22.452-26.703 49.147-27.632 77.335-11.566 16.183-18.38 35.982-18.38 57.344 0 54.5 44.339 98.839 98.839 98.839 9.002 0 17.724-1.217 26.018-3.482h248.138c23.832 0 42.438-20.765 39.8-44.574-4.802-43.223-18.391-82.09-40.387-115.522-50.118-76.181-133.18-107.83-178.232-119.915-8.494-2.278-17.224-3.727-25.948-4.305-.001 0-.002 0-.002 0-12.681-.844-25.308.099-37.646 2.798l-21.234-21.234c-15.704-15.704-24.353-36.587-24.353-58.802s8.648-43.098 24.352-58.801c32.426-32.417 85.179-32.417 117.595-.001l79.697 79.695c2.929 2.929 7.678 2.928 10.606 0 2.929-2.929 2.929-7.678 0-10.607l-15.79-15.789 23.957-23.949 65.101 65.101-23.95 23.95-28.289-28.287c-2.929-2.929-7.678-2.928-10.606 0-2.929 2.929-2.929 7.678 0 10.607l28.289 28.286-6.173 6.173c-9.612 9.612-14.906 22.391-14.906 35.984s5.293 26.373 14.906 35.985c7.725 7.725 20.295 7.725 28.02 0l101.455-101.455c7.725-7.725 7.725-20.295 0-28.021-19.844-19.842-52.129-19.841-71.97 0zm-232.06 74.137c5.07.683 10.111 1.694 15.063 3.022 41.976 11.26 118.467 40.224 166.169 108.626l-6.802 6.802c-13.166 13.166-34.738 13.24-48.132-.38-28.77-29.307-65.371-50.136-103.845-63.991-13.42-4.836-22.452-17.627-22.452-31.81v-22.269zm-15-1.067v23.335c0 20.601 13.118 38.986 32.368 45.922 36.679 13.209 71.258 32.919 98.229 60.392 19.085 19.409 50.212 19.701 69.439.475l4.536-4.536c17.799 29.639 28.92 63.604 33.087 101.104 1.613 14.553-9.588 27.92-24.891 27.92h-216.649c22.95-16.526 38.266-42.245 40.915-71.318 0-.006.001-.012.002-.019 2.42-26.625-6.025-52.497-22.407-72.19-2.652-3.188-7.381-3.617-10.563-.97-3.174 2.64-3.626 7.367-.969 10.563 12.22 14.695 19.354 33.621 19.354 53.577 0 45.84-37.278 83.839-83.839 83.839-46.229 0-83.839-37.61-83.839-83.839 0-65.416 72.326-105.705 127.865-71.357 3.523 2.178 8.146 1.089 10.324-2.434 2.179-3.523 1.089-8.145-2.434-10.324-35.512-21.962-82.383-19.41-115.255 8.176 3.5-17.95 11.089-34.821 22.421-49.62 28.218-36.851 65.154-42.614 68.496-44.093 10.531-3.013 22.018-4.685 33.81-4.603zm-61.489-161.35c-18.537 18.537-28.746 43.187-28.746 69.408s10.209 50.872 28.746 69.409l15.134 15.134c-.578.175-3.562 1.112-6.556 2.187-9.299 3.328-18.12 7.612-26.351 12.805l-6.175-6.177c-24.939-24.939-38.674-58.094-38.674-93.357s13.734-68.418 38.674-93.357c24.892-24.898 58.047-38.608 93.357-38.607 35.308.001 68.463 13.711 93.357 38.606l53.298 53.298-23.957 23.95-53.299-53.299c-38.264-38.264-100.532-38.264-138.808 0zm369.912 105.694-101.456 101.455c-1.876 1.876-4.931 1.876-6.807 0-6.779-6.779-10.512-15.792-10.512-25.378s3.733-18.599 10.512-25.378l57.506-57.506c6.998-6.998 16.187-10.495 25.378-10.495 9.189 0 18.382 3.499 25.378 10.495 1.877 1.876 1.877 4.93.001 6.807z"/></g></g></svg>