<svg width="167" height="167" viewBox="0 0 167 167" fill="none" xmlns="http://www.w3.org/2000/svg">
<g filter="url(#filter0_d)">
<circle cx="83.5" cy="79.5" r="79.5" fill="white"/>
<circle cx="83.5" cy="79.5" r="79" stroke="black"/>
</g>
<path d="M74.2781 56.296L92.4601 94.796H83.9451L72.9611 71.396L61.0431 94.796H52.4191L72.0271 56.296H74.2781Z" fill="#2E2E2D"/>
<path d="M30.942 87.134H45.275V94.768H23.254V56.322H30.943L30.942 87.134Z" fill="#2E2E2D"/>
<path d="M109.707 77.193L106.743 80.216V94.767H99.0541V56.323H106.743V68.735L118.002 56.323H128.382L114.925 71.371L128.711 94.771H119.539L109.707 77.193Z" fill="#2E2E2D"/>
<path d="M136.955 94.768V56.322H144.644V94.768H136.955Z" fill="#2E2E2D"/>
<path d="M79.086 94.711L70.451 76.428L72.96 71.428L77.575 63.307L74.275 56.325H72.025L61.676 76.616L66.076 85.154L66.103 85.1L70.613 94.706L79.086 94.711Z" fill="url(#paint0_linear)"/>
<path d="M40.6704 105.759L40.8071 106.696L41.0073 105.852L42.4136 100.891H43.2046L44.5767 105.852L44.772 106.711L44.9233 105.754L46.0269 100.891H46.9692L45.2456 108H44.3911L42.9263 102.819L42.814 102.277L42.7017 102.819L41.1831 108H40.3286L38.6099 100.891H39.5474L40.6704 105.759ZM49.9087 108.098C49.1925 108.098 48.6099 107.863 48.1606 107.395C47.7114 106.923 47.4868 106.293 47.4868 105.505V105.339C47.4868 104.815 47.5861 104.348 47.7847 103.938C47.9865 103.524 48.2664 103.202 48.6245 102.971C48.9858 102.736 49.3765 102.619 49.7964 102.619C50.4832 102.619 51.0171 102.845 51.3979 103.298C51.7788 103.75 51.9692 104.398 51.9692 105.241V105.617H48.3901C48.4032 106.138 48.5545 106.56 48.8442 106.882C49.1372 107.201 49.5083 107.36 49.9575 107.36C50.2765 107.36 50.5467 107.295 50.7681 107.165C50.9894 107.035 51.1831 106.862 51.3491 106.647L51.9009 107.077C51.4582 107.757 50.7941 108.098 49.9087 108.098ZM49.7964 103.361C49.4318 103.361 49.1258 103.495 48.8784 103.762C48.631 104.025 48.478 104.396 48.4194 104.875H51.0659V104.807C51.0399 104.348 50.9162 103.993 50.6948 103.742C50.4735 103.488 50.174 103.361 49.7964 103.361ZM58.7612 108C58.7091 107.896 58.6668 107.71 58.6343 107.443C58.2144 107.88 57.7131 108.098 57.1304 108.098C56.6095 108.098 56.1815 107.951 55.8462 107.658C55.5142 107.362 55.3481 106.988 55.3481 106.535C55.3481 105.985 55.5565 105.559 55.9731 105.256C56.3931 104.95 56.9823 104.797 57.7407 104.797H58.6196V104.382C58.6196 104.066 58.5252 103.815 58.3364 103.63C58.1476 103.441 57.8693 103.347 57.5015 103.347C57.1792 103.347 56.909 103.428 56.6909 103.591C56.4728 103.754 56.3638 103.951 56.3638 104.182H55.4556C55.4556 103.918 55.5483 103.664 55.7339 103.42C55.9227 103.173 56.1766 102.977 56.4956 102.834C56.8179 102.691 57.1711 102.619 57.5552 102.619C58.1639 102.619 58.6408 102.772 58.9858 103.078C59.3309 103.381 59.5099 103.799 59.5229 104.333V106.765C59.5229 107.25 59.5848 107.635 59.7085 107.922V108H58.7612ZM57.2622 107.312C57.5454 107.312 57.814 107.238 58.0679 107.092C58.3218 106.945 58.5057 106.755 58.6196 106.521V105.437H57.9116C56.8049 105.437 56.2515 105.76 56.2515 106.408C56.2515 106.691 56.3459 106.913 56.5347 107.072C56.7235 107.232 56.966 107.312 57.2622 107.312ZM63.4927 103.527C63.356 103.505 63.2078 103.493 63.0483 103.493C62.4559 103.493 62.0539 103.745 61.8423 104.25V108H60.939V102.717H61.8179L61.8325 103.327C62.1287 102.855 62.5487 102.619 63.0923 102.619C63.2681 102.619 63.4015 102.642 63.4927 102.688V103.527ZM66.4224 108.098C65.7062 108.098 65.1235 107.863 64.6743 107.395C64.2251 106.923 64.0005 106.293 64.0005 105.505V105.339C64.0005 104.815 64.0998 104.348 64.2983 103.938C64.5002 103.524 64.7801 103.202 65.1382 102.971C65.4995 102.736 65.8901 102.619 66.3101 102.619C66.9969 102.619 67.5308 102.845 67.9116 103.298C68.2925 103.75 68.4829 104.398 68.4829 105.241V105.617H64.9038C64.9168 106.138 65.0682 106.56 65.3579 106.882C65.6509 107.201 66.022 107.36 66.4712 107.36C66.7902 107.36 67.0604 107.295 67.2817 107.165C67.5031 107.035 67.6968 106.862 67.8628 106.647L68.4146 107.077C67.9718 107.757 67.3078 108.098 66.4224 108.098ZM66.3101 103.361C65.9455 103.361 65.6395 103.495 65.3921 103.762C65.1447 104.025 64.9917 104.396 64.9331 104.875H67.5796V104.807C67.5535 104.348 67.4299 103.993 67.2085 103.742C66.9871 103.488 66.6877 103.361 66.3101 103.361ZM72.9165 103.356C73.3169 102.865 73.8377 102.619 74.479 102.619C75.5955 102.619 76.1587 103.249 76.1685 104.509V108H75.2651V104.504C75.2619 104.123 75.174 103.841 75.0015 103.659C74.8322 103.477 74.5669 103.386 74.2056 103.386C73.9126 103.386 73.6554 103.464 73.4341 103.62C73.2127 103.776 73.0402 103.981 72.9165 104.235V108H72.0132V100.5H72.9165V103.356ZM79.7134 108.098C78.9972 108.098 78.4146 107.863 77.9653 107.395C77.5161 106.923 77.2915 106.293 77.2915 105.505V105.339C77.2915 104.815 77.3908 104.348 77.5894 103.938C77.7912 103.524 78.0711 103.202 78.4292 102.971C78.7905 102.736 79.1812 102.619 79.6011 102.619C80.2879 102.619 80.8218 102.845 81.2026 103.298C81.5835 103.75 81.7739 104.398 81.7739 105.241V105.617H78.1948C78.2078 106.138 78.3592 106.56 78.6489 106.882C78.9419 107.201 79.313 107.36 79.7622 107.36C80.0812 107.36 80.3514 107.295 80.5728 107.165C80.7941 107.035 80.9878 106.862 81.1538 106.647L81.7056 107.077C81.2629 107.757 80.5988 108.098 79.7134 108.098ZM79.6011 103.361C79.2365 103.361 78.9305 103.495 78.6831 103.762C78.4357 104.025 78.2827 104.396 78.2241 104.875H80.8706V104.807C80.8446 104.348 80.7209 103.993 80.4995 103.742C80.2782 103.488 79.9787 103.361 79.6011 103.361ZM85.3774 103.527C85.2407 103.505 85.0926 103.493 84.9331 103.493C84.3407 103.493 83.9386 103.745 83.7271 104.25V108H82.8237V102.717H83.7026L83.7173 103.327C84.0135 102.855 84.4334 102.619 84.9771 102.619C85.1528 102.619 85.2863 102.642 85.3774 102.688V103.527ZM88.3071 108.098C87.591 108.098 87.0083 107.863 86.5591 107.395C86.1099 106.923 85.8853 106.293 85.8853 105.505V105.339C85.8853 104.815 85.9845 104.348 86.1831 103.938C86.3849 103.524 86.6649 103.202 87.0229 102.971C87.3843 102.736 87.7749 102.619 88.1948 102.619C88.8817 102.619 89.4155 102.845 89.7964 103.298C90.1772 103.75 90.3677 104.398 90.3677 105.241V105.617H86.7886C86.8016 106.138 86.953 106.56 87.2427 106.882C87.5356 107.201 87.9067 107.36 88.356 107.36C88.675 107.36 88.9451 107.295 89.1665 107.165C89.3879 107.035 89.5815 106.862 89.7476 106.647L90.2993 107.077C89.8566 107.757 89.1925 108.098 88.3071 108.098ZM88.1948 103.361C87.8302 103.361 87.5243 103.495 87.2769 103.762C87.0295 104.025 86.8765 104.396 86.8179 104.875H89.4644V104.807C89.4383 104.348 89.3146 103.993 89.0933 103.742C88.8719 103.488 88.5724 103.361 88.1948 103.361ZM94.3423 108V103.415H93.5073V102.717H94.3423V102.175C94.3423 101.608 94.4937 101.171 94.7964 100.861C95.0991 100.552 95.5272 100.397 96.0806 100.397C96.2889 100.397 96.4956 100.425 96.7007 100.48L96.6519 101.213C96.4989 101.184 96.3361 101.169 96.1636 101.169C95.8706 101.169 95.6444 101.255 95.4849 101.428C95.3254 101.597 95.2456 101.841 95.2456 102.16V102.717H96.3735V103.415H95.2456V108H94.3423ZM97.1353 105.31C97.1353 104.792 97.2362 104.326 97.438 103.913C97.6431 103.5 97.9263 103.181 98.2876 102.956C98.6522 102.731 99.0672 102.619 99.5327 102.619C100.252 102.619 100.833 102.868 101.276 103.366C101.722 103.864 101.945 104.527 101.945 105.354V105.417C101.945 105.931 101.846 106.394 101.647 106.804C101.452 107.211 101.17 107.528 100.802 107.756C100.438 107.984 100.018 108.098 99.5425 108.098C98.8263 108.098 98.2453 107.849 97.7993 107.351C97.3566 106.853 97.1353 106.193 97.1353 105.373V105.31ZM98.0435 105.417C98.0435 106.003 98.1785 106.473 98.4487 106.828C98.7222 107.183 99.0868 107.36 99.5425 107.36C100.001 107.36 100.366 107.181 100.636 106.823C100.906 106.462 101.042 105.957 101.042 105.31C101.042 104.73 100.903 104.261 100.626 103.903C100.353 103.542 99.9884 103.361 99.5327 103.361C99.0868 103.361 98.7271 103.539 98.4536 103.894C98.1802 104.248 98.0435 104.756 98.0435 105.417ZM105.631 103.527C105.495 103.505 105.347 103.493 105.187 103.493C104.595 103.493 104.193 103.745 103.981 104.25V108H103.078V102.717H103.957L103.971 103.327C104.267 102.855 104.687 102.619 105.231 102.619C105.407 102.619 105.54 102.642 105.631 102.688V103.527ZM110.675 106.677L111.906 102.717H112.873L110.749 108.815C110.42 109.694 109.897 110.134 109.181 110.134L109.01 110.119L108.673 110.056V109.323L108.917 109.343C109.223 109.343 109.461 109.281 109.63 109.157C109.803 109.034 109.944 108.807 110.055 108.479L110.255 107.941L108.371 102.717H109.357L110.675 106.677ZM113.366 105.31C113.366 104.792 113.467 104.326 113.668 103.913C113.874 103.5 114.157 103.181 114.518 102.956C114.883 102.731 115.298 102.619 115.763 102.619C116.483 102.619 117.064 102.868 117.506 103.366C117.952 103.864 118.175 104.527 118.175 105.354V105.417C118.175 105.931 118.076 106.394 117.877 106.804C117.682 107.211 117.401 107.528 117.033 107.756C116.668 107.984 116.248 108.098 115.773 108.098C115.057 108.098 114.476 107.849 114.03 107.351C113.587 106.853 113.366 106.193 113.366 105.373V105.31ZM114.274 105.417C114.274 106.003 114.409 106.473 114.679 106.828C114.953 107.183 115.317 107.36 115.773 107.36C116.232 107.36 116.597 107.181 116.867 106.823C117.137 106.462 117.272 105.957 117.272 105.31C117.272 104.73 117.134 104.261 116.857 103.903C116.583 103.542 116.219 103.361 115.763 103.361C115.317 103.361 114.958 103.539 114.684 103.894C114.411 104.248 114.274 104.756 114.274 105.417ZM122.57 107.478C122.218 107.891 121.702 108.098 121.022 108.098C120.459 108.098 120.029 107.935 119.733 107.609C119.44 107.281 119.292 106.796 119.289 106.154V102.717H120.192V106.13C120.192 106.931 120.517 107.331 121.168 107.331C121.859 107.331 122.318 107.074 122.545 106.56V102.717H123.449V108H122.589L122.57 107.478Z" fill="#707070"/>
<defs>
<filter id="filter0_d" x="0" y="0" width="167" height="167" filterUnits="userSpaceOnUse" color-interpolation-filters="sRGB">
<feFlood flood-opacity="0" result="BackgroundImageFix"/>
<feColorMatrix in="SourceAlpha" type="matrix" values="0 0 0 0 0 0 0 0 0 0 0 0 0 0 0 0 0 0 127 0"/>
<feOffset dy="4"/>
<feGaussianBlur stdDeviation="2"/>
<feColorMatrix type="matrix" values="0 0 0 0 0 0 0 0 0 0 0 0 0 0 0 0 0 0 0.25 0"/>
<feBlend mode="normal" in2="BackgroundImageFix" result="effect1_dropShadow"/>
<feBlend mode="normal" in="SourceGraphic" in2="effect1_dropShadow" result="shape"/>
</filter>
<linearGradient id="paint0_linear" x1="70.381" y1="56.325" x2="70.381" y2="94.711" gradientUnits="userSpaceOnUse">
<stop stop-color="#187C9B"/>
<stop offset="1" stop-color="#18708D"/>
</linearGradient>
</defs>
</svg>
